<svg xmlns="http://www.w3.org/2000/svg" xmlns:xlink="http://www.w3.org/1999/xlink" id="Layer_1" x="0px" y="0px" viewBox="0 0 131.9 141.7" style="enable-background:new 0 0 131.9 141.7;" xml:space="preserve">
<style type="text/css">
	.st0{fill:none;stroke:#000000;stroke-width:0.9;}
	.st1{clip-path:url(#SVGID_2_);}
</style>
<line class="st0" x1="86.9" y1="53.4" x2="46.9" y2="93.4"></line>
<g>
	<defs>
		<rect id="SVGID_1_" x="11.1" y="17.7" width="111.6" height="111.6"></rect>
	</defs>
	<clipPath id="SVGID_2_">
		<use xlink:href="#SVGID_1_" style="overflow:visible;"></use>
	</clipPath>
	<path class="st1" d="M18.6,91.2l-0.8,0.2l-2.1-7.6l0.8-0.2L18.6,91.2z M18.7,101.4l3.9,0l-1.8,3.4l0.6,1l2.3-4.5l1.9-1.1l-0.5-0.9   l-1.9,1.1l-5-0.1L18.7,101.4z M27,111l-1-1.2c-0.6-0.7-0.6-1.5-0.1-2c0.6-0.5,1.4-0.3,1.9,0.4l1,1.2L27,111z M29.2,105l-0.8-1   l-0.6,2.9c-0.8-0.5-1.7-0.4-2.5,0.2c-1,0.9-1,2.2,0,3.3l1.7,2l5-4.2l-0.7-0.8l-1.7,1.4l-1-1.1L29.2,105z M30.8,114.6l-0.6,0.7   l3.6,3l4.2-5l-3.6-3l-0.6,0.7l2.8,2.3l-1.2,1.4l-2.5-2.1l-0.6,0.7l2.5,2.1l-1.2,1.4L30.8,114.6z M38.7,121.5l2.3-4.1l1.1,6l0.7,0.4   l3.2-5.7l-0.9-0.5l-2.2,4l-1.1-5.9l-0.7-0.4l-3.2,5.7L38.7,121.5z M52,121.2c1.3,0.4,1.9,1.7,1.5,3c-0.4,1.3-1.7,2-3,1.6   c-1.3-0.4-1.9-1.8-1.5-3C49.4,121.5,50.7,120.8,52,121.2 M50.2,126.7c1.8,0.6,3.7-0.4,4.3-2.2c0.6-1.8-0.4-3.7-2.2-4.3   c-1.8-0.6-3.7,0.4-4.3,2.2C47.5,124.3,48.4,126.1,50.2,126.7 M58.5,128.6l1.2-6.4l-1-0.2l-1.2,6.4L58.5,128.6z M62.4,129l5.6,0.2   l0-0.9l-2.3-0.1l0.2-5.6l-1,0l-0.2,5.6l-2.3-0.1L62.4,129z M74.6,124.6l-0.9,2.9l-1.5-2.7L74.6,124.6z M70.9,122.5l-1.1,0.1   l3.6,6.2l1-0.1l2.1-6.8l-1.1,0.1l-0.5,1.6l-3.2,0.4L70.9,122.5z M79.7,127.7l5.5-1.5l-0.3-0.9l-2.2,0.6l-1.5-5.4l-1,0.3l1.5,5.4   l-2.2,0.6L79.7,127.7z M91.1,123.8c1.3-0.6,1.9-1.7,1.3-2.8c-0.4-0.9-1.2-1.2-2.4-0.9l-1.1,0.3c-0.8,0.2-1.1,0-1.3-0.4   c-0.3-0.5,0.1-1.1,0.8-1.5c0.9-0.4,1.7-0.3,2.2,0.4l0.9-0.4c-0.7-1.2-2-1.5-3.5-0.8c-1.4,0.6-1.9,1.8-1.4,2.9   c0.4,0.9,1.3,1.1,2.5,0.8l0.9-0.2c0.7-0.2,1.2-0.1,1.4,0.4c0.3,0.6-0.1,1.1-0.8,1.5c-0.9,0.4-1.5,0.2-1.9-0.4l-0.9,0.4   C88.7,124.4,90,124.3,91.1,123.8 M100.1,117l0.6,0.7l3.6-3l-4.1-5.1l-3.6,3l0.6,0.7l2.8-2.3l1.1,1.4l-2.5,2.1l0.6,0.7l2.5-2.1   l1.2,1.5L100.1,117z M105.3,105.8l4.1,3.8l0.7-0.8l-4.8-4.4l-3.1,3.3l0.7,0.6L105.3,105.8z M109.3,100.2l1-1.6l1.6,1.1l-1,1.6   c-0.5,0.7-1,0.9-1.5,0.6C108.9,101.6,108.8,100.9,109.3,100.2 M113.3,102.6c-0.5,0.7-1,0.9-1.5,0.6c-0.5-0.3-0.6-1-0.1-1.7l0.9-1.4   l1.6,1.1L113.3,102.6z M110.8,102.5c-0.2,0.6,0.1,1.3,0.7,1.6c0.9,0.6,1.8,0.2,2.6-0.9l1.5-2.4l-5.5-3.6l-1.6,2.5   c-0.8,1.2-0.7,2.4,0.2,3C109.4,103.1,110.1,103.1,110.8,102.5 M115.5,91.4l2.1,2.2l-3.1,0L115.5,91.4z M111.8,93.6l-0.4,1l7.1,0   l0.4-0.9l-4.8-5.2l-0.4,1l1.2,1.2l-1.3,2.9L111.8,93.6z M121.6,84.8c0.3-1.4-0.2-2.5-1.4-2.8c-0.9-0.2-1.7,0.2-2.2,1.4l-0.5,1.1   c-0.3,0.7-0.7,0.9-1.1,0.8c-0.6-0.1-0.8-0.7-0.6-1.6c0.2-1,0.8-1.5,1.7-1.5l0.2-1c-1.4-0.2-2.4,0.7-2.8,2.3   c-0.3,1.5,0.2,2.6,1.4,2.9c1,0.2,1.6-0.4,2.1-1.5l0.4-0.9c0.3-0.7,0.6-1,1.1-0.9c0.6,0.1,0.9,0.7,0.7,1.6c-0.2,0.9-0.7,1.3-1.4,1.3   l-0.2,1C120.6,87.1,121.3,86,121.6,84.8 M122.5,77.1l-6.5-0.6l-0.1,1l6.5,0.6L122.5,77.1z M122.7,72.5l0-0.7l-4.3-2.3l4-2.8l0-0.7   l-6.5,0.4l0.1,1l4.3-0.3l-3,2.2l0,0.6l3.3,1.7l-4.2,0.3l0.1,1L122.7,72.5z M115.1,59.7c-0.4-1.3,0.4-2.6,1.7-2.9   c1.3-0.4,2.6,0.3,3,1.6c0.4,1.3-0.4,2.6-1.7,2.9C116.7,61.6,115.4,60.9,115.1,59.7 M120.6,58.1c-0.5-1.8-2.3-2.9-4.2-2.4   c-1.8,0.5-2.9,2.4-2.4,4.2c0.5,1.8,2.3,2.9,4.2,2.4C120.1,61.8,121.1,59.9,120.6,58.1 M118.2,51.6l-2.4-5.1l-0.9,0.4l1,2.1l-5,2.4   l0.4,0.9l5-2.4l1,2.1L118.2,51.6z M112.4,41c-0.8-1.2-2-1.5-3-0.9c-0.8,0.6-1,1.4-0.5,2.5l0.5,1.1c0.3,0.7,0.2,1.1-0.1,1.3   c-0.5,0.3-1.1,0.1-1.6-0.6c-0.6-0.8-0.6-1.7,0-2.2l-0.6-0.8c-1.1,0.9-1.2,2.3-0.2,3.6c0.9,1.2,2.1,1.6,3.1,0.9   c0.8-0.6,0.8-1.4,0.3-2.6l-0.4-0.9c-0.3-0.7-0.3-1.1,0.1-1.4c0.5-0.4,1.1-0.1,1.6,0.6c0.5,0.8,0.5,1.4,0,1.9l0.6,0.8   C113.4,43.3,113.1,42,112.4,41 M108,35.7l-0.7-0.7l-2.6,2.6c-0.9,0.8-2,0.9-2.7,0.1c-0.8-0.8-0.7-1.9,0.2-2.7l2.6-2.6l-0.7-0.7   l-2.6,2.6c-1.3,1.3-1.3,2.9-0.1,4.1c1.2,1.2,2.8,1.2,4.1-0.1L108,35.7z M94.7,31.8c-1.1-0.8-1.4-2.2-0.6-3.3   c0.8-1.2,2.2-1.4,3.3-0.7c0.9,0.6,1.2,1.5,0.8,2.5l0.9,0.6c0.6-1.5,0.2-3-1.1-3.9c-1.6-1.1-3.6-0.7-4.7,0.9   c-1.1,1.6-0.7,3.6,0.9,4.7c1.3,0.9,2.9,0.8,4.1-0.4l-0.9-0.6C96.6,32.3,95.6,32.4,94.7,31.8 M77.7,23l0.3-0.8l7.5,2.4l-0.3,0.8   L77.7,23z M68.3,17.7l-0.1,4.7l-3.8-4.7l-0.8,0l-0.1,6.5l1,0l0.1-4.6l3.8,4.6l0.8,0l0.1-6.5L68.3,17.7z M58.1,18.4l0.9,6.5l1-0.1   l-0.9-6.5L58.1,18.4z M51.1,24.2l0.4-3l1.9,2.4L51.1,24.2z M55.1,25.6l1.1-0.3l-4.5-5.5l-0.9,0.3l-1.1,7.1l1.1-0.3l0.2-1.7l3.1-0.8   L55.1,25.6z M40.8,25.1l1.4-0.7c0.8-0.4,1.6-0.2,1.9,0.4c0.3,0.7-0.1,1.4-0.9,1.7l-1.4,0.7L40.8,25.1z M46.1,28.8l1.1-0.5l-2.7-1.4   c0.7-0.7,0.9-1.6,0.5-2.4c-0.6-1.2-1.9-1.5-3.2-0.9l-2.4,1.1l2.8,5.9l0.9-0.4l-0.9-2l1.4-0.6L46.1,28.8z M34.6,31.7l0.6,0.8   l1.8-1.3c0.4,0.9,0.2,2-0.7,2.7c-1.1,0.8-2.5,0.5-3.3-0.5c-0.9-1.2-0.6-2.6,0.5-3.4c0.6-0.5,1.6-0.7,2.4-0.1l0.9-0.7   c-1.2-1-2.8-0.9-3.9,0c-1.5,1.1-1.9,3.2-0.7,4.8c1.1,1.5,3.1,1.8,4.7,0.7c0.9-0.7,1.2-1.5,1.2-2.4l0.7,0.9l0.7-0.5l-2.1-2.9   L34.6,31.7z M26.4,44.2c-0.5,0.7-1.3,0.8-1.8,0.5c-0.4-0.3-0.5-0.8-0.4-1.4c0.2,0,0.4-0.1,0.7-0.1l1.9-0.3   C26.8,43.4,26.7,43.9,26.4,44.2 M29.4,41.5l-1.9,0.3l0-0.1l-0.8-2.1L26,40.4l0.5,1.6l-1.5,0.3c-1.3,0.2-1.9,0.4-2.4,0   c-0.4-0.3-0.5-0.9-0.2-1.3c0.3-0.4,0.8-0.5,1.3-0.2l0.6-0.8c-1-0.6-2-0.4-2.7,0.5c-0.7,0.9-0.6,2,0.2,2.7c0.4,0.3,0.7,0.4,1.3,0.3   c-0.2,0.8,0,1.5,0.7,2c0.9,0.7,2.2,0.4,3-0.7c0.5-0.6,0.7-1.3,0.6-2l0.9-0.2L29.4,41.5z M16.4,49.9l-2.2,5.2l0.9,0.4l0.9-2.1   l5.1,2.2l0.4-0.9l-5.1-2.2l0.9-2.1L16.4,49.9z M17.9,63.1c-0.3,1.3-1.5,2.1-2.9,1.8c-1.3-0.3-2.2-1.5-1.9-2.8   c0.3-1.3,1.6-2.1,2.9-1.8C17.4,60.6,18.2,61.8,17.9,63.1 M12.3,61.9c-0.4,1.8,0.7,3.6,2.6,4c1.8,0.4,3.6-0.8,4-2.6   c0.4-1.8-0.7-3.6-2.6-4C14.4,58.9,12.7,60.1,12.3,61.9 M16.7,73l0,1.4l-4.6-0.2l0.1-1.4c0-1.4,1.1-2.4,2.4-2.3   C15.8,70.6,16.8,71.7,16.7,73 M11.2,72.8l-0.1,2.4l6.5,0.2l0.1-2.4c0.1-2-1.3-3.5-3.2-3.6C12.7,69.4,11.3,70.8,11.2,72.8"></path>
</g>
</svg>