<svg xmlns="http://www.w3.org/2000/svg" xmlns:xlink="http://www.w3.org/1999/xlink" id="Layer_1" x="0px" y="0px" viewBox="0 0 24 24" style="enable-background:new 0 0 24 24;" xml:space="preserve">
<style type="text/css">
	.st0{fill:#FFFFFF;}
</style>
<g>
	<path class="st0" d="M16.4,1.5H7.8c-3.5,0-6.3,2.8-6.3,6.3v8.5c0,3.5,2.8,6.3,6.3,6.3h8.5c3.5,0,6.3-2.8,6.3-6.3V7.8   C22.6,4.3,19.8,1.5,16.4,1.5z M20.5,16.3c0,2.3-1.9,4.2-4.2,4.2H7.8c-2.3,0-4.2-1.9-4.2-4.2V7.8c0-2.3,1.9-4.2,4.2-4.2h8.5   c2.3,0,4.2,1.9,4.2,4.2L20.5,16.3L20.5,16.3z"></path>
	<path class="st0" d="M12.1,6.6c-3,0-5.5,2.5-5.5,5.5s2.5,5.5,5.5,5.5s5.5-2.5,5.5-5.5S15.1,6.6,12.1,6.6z M12.1,15.4   c-1.8,0-3.3-1.5-3.3-3.3s1.5-3.3,3.3-3.3c1.8,0,3.3,1.5,3.3,3.3C15.4,13.9,13.9,15.4,12.1,15.4z"></path>
	<circle class="st0" cx="17.6" cy="6.6" r="1.3"></circle>
</g>
</svg>