<svg xmlns="http://www.w3.org/2000/svg" xmlns:xlink="http://www.w3.org/1999/xlink" id="Layer_1" x="0px" y="0px" viewBox="0 0 134 78.6" style="enable-background:new 0 0 134 78.6;" xml:space="preserve">
<style type="text/css">
	.st0{fill:none;stroke:#231F20;}
	.st1{fill:none;stroke:#231F20;stroke-linecap:round;stroke-linejoin:round;}
</style>
<path class="st0" d="M76.6,58.1c8.5,0,17,0,25.4,0c0-12.1,0-24.1,0-36.2H53.3v36.2c2.5,0,4.9,0,7.4,0"></path>
<path class="st0" d="M122.3,58.1c1.5,0,3.1,0,4.6,0c0-5.3,0-10.7,0-16l-10.4-14.6h-14.4"></path>
<path class="st0" d="M102.1,58.1c1.5,0,3.1,0,4.6,0"></path>
<circle class="st1" cx="68.7" cy="58.4" r="7.9"></circle>
<circle class="st1" cx="114.5" cy="58.4" r="7.9"></circle>
<line class="st0" x1="15.1" y1="31.7" x2="49.5" y2="31.7"></line>
<line class="st0" x1="5.9" y1="39.4" x2="49.5" y2="39.4"></line>
<line class="st0" x1="29.3" y1="47" x2="49.5" y2="47"></line>
</svg>