<svg xmlns="http://www.w3.org/2000/svg" xmlns:xlink="http://www.w3.org/1999/xlink" id="Layer_1" x="0px" y="0px" viewBox="0 0 24 24" style="enable-background:new 0 0 24 24;" xml:space="preserve">
<style type="text/css">
	.st0{fill:#231F20;}
</style>
<g>
	<g>
		<path class="st0" d="M12,5.1l1.9,4.4l0.2,0.6l0.6,0.1l4.9,0.4L16,13.7L15.6,14l0.1,0.6l1.1,4.7l-4.2-2.5l-0.5-0.3l-0.5,0.3    l-4.2,2.5l1.1-4.7L8.6,14l-0.5-0.4l-3.7-3.1l4.8-0.4L9.9,10l0.2-0.6L12,5.1 M12,2.5L9.2,9.1L2,9.7l5.5,4.7l-1.6,7l6.2-3.7l6.2,3.7    l-1.6-7L22,9.7l-7.2-0.6L12,2.5L12,2.5z"></path>
	</g>
</g>
</svg>