<svg xmlns="http://www.w3.org/2000/svg" xmlns:xlink="http://www.w3.org/1999/xlink" id="Layer_1" x="0px" y="0px" viewBox="0 0 151.2 107.1" style="enable-background:new 0 0 151.2 107.1;" xml:space="preserve">
<path d="M111,68.8h-4.8v21.7h4.8V75.9c1.7-2.1,4-3.3,6-3.3c3.5,0,5.6,2.1,5.6,6.1v11.8h4.8V78.4c0-6.3-3.8-10.2-9.5-10.2  c-2.8,0-5.1,0.9-7,2.5V68.8z M100.8,68.8H96v21.7h4.8V68.8z M57.4,68.8h-4.8v21.7h4.8V76.9c1.9-2.5,4.6-3.8,8-4v-4.5  c-3.3,0-6,1.2-8,3.4V68.8z M38.2,34.4c0,6.5-5,11.3-11.6,11.3H20V23.5h6.6C33.2,23.5,38.2,28.2,38.2,34.4 M43.3,34.4  c0-9-7-15.5-16.7-15.5H15v31.4h11.6C36.3,50.3,43.3,43.6,43.3,34.4 M41.9,90.5h3.9v-17h-16v4.6h10.6c-1.1,4.8-4.7,8.3-10.2,8.3  c-6.7,0-11.2-5.2-11.2-11.3c0-7.1,4.9-12,11.5-12c3.7,0,8.1,1.8,9.7,6.6h5.3c-1.8-7.5-8.3-11.2-15.1-11.2c-9.1,0-16.5,6.8-16.5,16.6  c0,8.7,6.9,15.9,16.2,15.9c5.4,0,9.1-2.3,11.3-6L41.9,90.5z M64.1,39.4c0,4.1-2.8,7.1-6.7,7.1c-3.9,0-6.7-3-6.7-7.1  c0-4.1,2.8-7.1,6.7-7.1C61.3,32.4,64.1,35.3,64.1,39.4 M68.9,39.4c0-6.6-4.8-11.4-11.5-11.4c-6.7,0-11.5,4.8-11.5,11.4  c0,6.6,4.8,11.4,11.5,11.4C64.1,50.8,68.9,46.1,68.9,39.4 M80.1,41.9v-9.3h8v-4h-8v-8h-4.8v8h-5.1v4h5.1v9.3c0,5.6,3,8.9,8.5,8.9  c1.5,0,3-0.2,4.9-0.9l-0.7-4.4c-1.1,0.5-2.4,0.8-3.7,0.8C81.7,46.4,80.1,45.1,80.1,41.9 M85.5,83.6c-1.6,2.3-3.9,3.1-6.3,3.1  c-4,0-6.9-3.2-6.9-7.1s2.9-7.1,6.9-7.1c2.4,0,4.7,0.8,6.3,3.1V83.6z M85.5,90.5h4.8V68.8h-4.8v1.7c-1.8-1.4-4.2-2.3-7-2.3  c-6.1,0-11,5.1-11,11.4c0,6.3,4.9,11.4,11,11.4c2.8,0,5.1-0.8,7-2.3V90.5z M98.4,57.9c-1.7,0-3,1.2-3,3c0,1.7,1.3,3,3,3  c1.7,0,3-1.2,3-3C101.4,59.1,100,57.9,98.4,57.9 M114.9,44.3c-1.9,1.5-4.1,2.4-6.4,2.4c-4,0-6.8-2.4-6.8-5.4c0-2.4,1.6-4.2,4.1-5.4  c0.7,0.7,1.5,1.4,2.4,2.2L114.9,44.3z M127.7,50.3l-6.8-6.3l0.3-0.5l6-9.1h-5l-4.4,6.6l-5.4-5c-4.6-4.2-7-6.3-7-9.1  c0-2.6,1.9-4.4,4.6-4.4c2.5,0,4.3,1.6,4.7,4.6h4.8c-0.6-5.4-4.1-8.9-9.5-8.9c-5.4,0-9.6,3.6-9.6,8.6c0,2.2,0.8,3.9,2.4,6  c-3.5,1.6-5.8,4.7-5.8,8.5c0,5.7,4.6,9.6,11.4,9.6c3.8,0,6.9-1.3,9.6-3.7l3.3,3H127.7z M137.8,87.9c0-1.7-1.4-2.9-3-2.9  c-1.6,0-3,1.2-3,2.9c0,1.7,1.4,2.9,3,2.9C136.4,90.8,137.8,89.6,137.8,87.9"></path>
</svg>