<svg width="26" height="20" viewBox="0 0 26 20" fill="none" xmlns="http://www.w3.org/2000/svg">
<path d="M1.97347 20C1.15437 20 0.68268 19.0692 1.16707 18.4086L10.1937 6.09964C10.5932 5.55479 11.4069 5.55479 11.8065 6.09964L20.8331 18.4086C21.3175 19.0692 20.8458 20 20.0267 20H1.97347Z" fill="#C8CACD"/>
<path d="M10.9339 20C10.1223 20 9.64873 19.0842 10.1178 18.422L16.684 9.15203C17.0826 8.58939 17.9176 8.58939 18.3161 9.15203L24.8823 18.422C25.3514 19.0842 24.8778 20 24.0663 20H10.9339Z" fill="#C8CACD"/>
<path d="M20.0001 2C20.0001 3.10457 19.1046 4 18.0001 4C16.8955 4 16.0001 3.10457 16.0001 2C16.0001 0.895431 16.8955 0 18.0001 0C19.1046 0 20.0001 0.895431 20.0001 2Z" fill="#C8CACD"/>
</svg>
