<svg width="24" height="24" viewBox="0 0 24 24" fill="none" xmlns="http://www.w3.org/2000/svg">
<path d="M11.8672 17.5312H4.21875V16.2266L8.00781 12.0938C8.55469 11.4844 8.94271 10.9766 9.17188 10.5703C9.40625 10.1589 9.52344 9.7474 9.52344 9.33594C9.52344 8.79427 9.36979 8.35677 9.0625 8.02344C8.76042 7.6901 8.35156 7.52344 7.83594 7.52344C7.22135 7.52344 6.74479 7.71094 6.40625 8.08594C6.06771 8.46094 5.89844 8.97396 5.89844 9.625H4C4 8.93229 4.15625 8.3099 4.46875 7.75781C4.78646 7.20052 5.23698 6.76823 5.82031 6.46094C6.40885 6.15365 7.08594 6 7.85156 6C8.95573 6 9.82552 6.27865 10.4609 6.83594C11.1016 7.38802 11.4219 8.15365 11.4219 9.13281C11.4219 9.70052 11.2604 10.2969 10.9375 10.9219C10.6198 11.5417 10.0964 12.2474 9.36719 13.0391L6.58594 16.0156H11.8672V17.5312Z" fill="#666666"/>
<path d="M16.7188 11.8594L18.3281 9.07812H20.4375L17.8516 13.2422L20.5234 17.5312H18.4297L16.7422 14.6406L15.0625 17.5312H12.9531L15.625 13.2422L13.0469 9.07812H15.1406L16.7188 11.8594Z" fill="#666666"/>
</svg>
