<svg width="24" height="24" viewBox="0 0 24 24" fill="none" xmlns="http://www.w3.org/2000/svg">
<path opacity="0.5" d="M0 18L15 24L24 19L9 13L0 18Z" fill="#30C2FF"/>
<path fill-rule="evenodd" clip-rule="evenodd" d="M8 12.4152V1H10V12.3185L23.3656 17.5693L22.6343 19.4308L9.07635 14.1044L1.49026 18.3716L0.509735 16.6284L8 12.4152Z" fill="#999999"/>
<path fill-rule="evenodd" clip-rule="evenodd" d="M16 11.5884V21.1565L22 17.8232V8.25507L16 11.5884ZM24 19L15 24L0 18V5L9 0L24 6V19ZM20.5486 6.7735L9.14008 2.2101L3.52146 5.33155L14.93 9.89495L20.5486 6.7735ZM14 11.677L2 6.87703V16.6459L14 21.4459V11.677Z" fill="#666666"/>
</svg>
