<svg width="160" height="160" viewBox="0 0 160 160" fill="none" xmlns="http://www.w3.org/2000/svg">
<path d="M67.6963 109.892C67.6963 111.151 67.4736 112.256 67.0283 113.205C66.583 114.154 65.9443 114.887 65.1123 115.402C64.2861 115.918 63.3369 116.176 62.2646 116.176C61.2041 116.176 60.2578 115.921 59.4258 115.411C58.5938 114.901 57.9492 114.175 57.4922 113.231C57.0352 112.282 56.8037 111.192 56.7979 109.962V109.329C56.7979 108.069 57.0234 106.962 57.4746 106.007C57.9316 105.046 58.5732 104.311 59.3994 103.801C60.2314 103.285 61.1807 103.027 62.2471 103.027C63.3135 103.027 64.2598 103.285 65.0859 103.801C65.918 104.311 66.5596 105.046 67.0107 106.007C67.4678 106.962 67.6963 108.066 67.6963 109.32V109.892ZM65.0244 109.312C65.0244 107.97 64.7842 106.95 64.3037 106.253C63.8232 105.556 63.1377 105.207 62.2471 105.207C61.3623 105.207 60.6797 105.553 60.1992 106.244C59.7188 106.93 59.4756 107.938 59.4697 109.268V109.892C59.4697 111.198 59.71 112.212 60.1904 112.933C60.6709 113.653 61.3623 114.014 62.2646 114.014C63.1494 114.014 63.8291 113.668 64.3037 112.977C64.7783 112.279 65.0186 111.266 65.0244 109.936V109.312Z" fill="#666666"/>
<path d="M69.0498 111.157C69.0498 110.214 69.2314 109.373 69.5947 108.635C69.958 107.896 70.4795 107.325 71.1592 106.921C71.8447 106.517 72.6387 106.314 73.541 106.314C74.8242 106.314 75.8701 106.707 76.6787 107.492C77.4932 108.277 77.9473 109.344 78.041 110.691L78.0586 111.342C78.0586 112.801 77.6514 113.973 76.8369 114.857C76.0225 115.736 74.9297 116.176 73.5586 116.176C72.1875 116.176 71.0918 115.736 70.2715 114.857C69.457 113.979 69.0498 112.783 69.0498 111.271V111.157ZM71.5898 111.342C71.5898 112.244 71.7598 112.936 72.0996 113.416C72.4395 113.891 72.9258 114.128 73.5586 114.128C74.1738 114.128 74.6543 113.894 75 113.425C75.3457 112.95 75.5186 112.194 75.5186 111.157C75.5186 110.272 75.3457 109.587 75 109.101C74.6543 108.614 74.168 108.371 73.541 108.371C72.9199 108.371 72.4395 108.614 72.0996 109.101C71.7598 109.581 71.5898 110.328 71.5898 111.342Z" fill="#666666"/>
<path d="M88.1836 111.333C88.1836 112.798 87.8496 113.973 87.1816 114.857C86.5195 115.736 85.623 116.176 84.4922 116.176C83.5312 116.176 82.7549 115.842 82.1631 115.174V119.656H79.623V106.49H81.9785L82.0664 107.422C82.6816 106.684 83.4844 106.314 84.4746 106.314C85.6465 106.314 86.5576 106.748 87.208 107.615C87.8584 108.482 88.1836 109.678 88.1836 111.201V111.333ZM85.6436 111.148C85.6436 110.264 85.4854 109.581 85.1689 109.101C84.8584 108.62 84.4043 108.38 83.8066 108.38C83.0098 108.38 82.4619 108.685 82.1631 109.294V113.188C82.4736 113.814 83.0273 114.128 83.8242 114.128C85.0371 114.128 85.6436 113.135 85.6436 111.148Z" fill="#666666"/>
<path d="M94.916 113.372C94.916 113.062 94.7607 112.818 94.4502 112.643C94.1455 112.461 93.6533 112.3 92.9736 112.159C90.7119 111.685 89.5811 110.724 89.5811 109.276C89.5811 108.433 89.9297 107.729 90.627 107.167C91.3301 106.599 92.2471 106.314 93.3779 106.314C94.585 106.314 95.5488 106.599 96.2695 107.167C96.9961 107.735 97.3594 108.474 97.3594 109.382H94.8193C94.8193 109.019 94.7021 108.72 94.4678 108.485C94.2334 108.245 93.8672 108.125 93.3691 108.125C92.9414 108.125 92.6104 108.222 92.376 108.415C92.1416 108.608 92.0244 108.854 92.0244 109.153C92.0244 109.435 92.1562 109.663 92.4199 109.839C92.6895 110.009 93.1406 110.158 93.7734 110.287C94.4062 110.41 94.9395 110.551 95.373 110.709C96.7148 111.201 97.3857 112.054 97.3857 113.267C97.3857 114.134 97.0137 114.837 96.2695 115.376C95.5254 115.909 94.5645 116.176 93.3867 116.176C92.5898 116.176 91.8809 116.035 91.2598 115.754C90.6445 115.467 90.1611 115.077 89.8096 114.585C89.458 114.087 89.2822 113.551 89.2822 112.977H91.6904C91.7139 113.428 91.8809 113.773 92.1914 114.014C92.502 114.254 92.918 114.374 93.4395 114.374C93.9258 114.374 94.292 114.283 94.5381 114.102C94.79 113.914 94.916 113.671 94.916 113.372Z" fill="#666666"/>
<path d="M101.613 112.071H99.5039L99.2051 103.203H101.912L101.613 112.071ZM100.559 113.46C100.986 113.46 101.329 113.586 101.587 113.838C101.851 114.09 101.982 114.412 101.982 114.805C101.982 115.191 101.851 115.511 101.587 115.763C101.329 116.015 100.986 116.141 100.559 116.141C100.137 116.141 99.7939 116.015 99.5303 115.763C99.2725 115.511 99.1436 115.191 99.1436 114.805C99.1436 114.418 99.2725 114.099 99.5303 113.847C99.7939 113.589 100.137 113.46 100.559 113.46Z" fill="#666666"/>
<path d="M10.1494 134.563C9.02376 134.24 8.20345 133.843 7.68848 133.374C7.17806 132.9 6.92285 132.317 6.92285 131.624C6.92285 130.84 7.23503 130.193 7.85938 129.683C8.48828 129.168 9.30404 128.91 10.3066 128.91C10.9902 128.91 11.5986 129.042 12.1318 129.307C12.6696 129.571 13.0843 129.936 13.376 130.4C13.6722 130.865 13.8203 131.373 13.8203 131.925H12.501C12.501 131.323 12.3096 130.852 11.9268 130.51C11.5439 130.163 11.0039 129.99 10.3066 129.99C9.65951 129.99 9.15365 130.134 8.78906 130.421C8.42904 130.703 8.24902 131.098 8.24902 131.604C8.24902 132.009 8.41992 132.353 8.76172 132.636C9.10807 132.914 9.69368 133.169 10.5186 133.401C11.348 133.634 11.9951 133.891 12.46 134.174C12.9294 134.452 13.2757 134.778 13.499 135.151C13.7269 135.525 13.8408 135.965 13.8408 136.471C13.8408 137.277 13.5264 137.924 12.8975 138.412C12.2686 138.895 11.4277 139.137 10.375 139.137C9.69141 139.137 9.05339 139.007 8.46094 138.747C7.86849 138.483 7.41048 138.123 7.08691 137.667C6.7679 137.211 6.6084 136.694 6.6084 136.115H7.92773C7.92773 136.717 8.14876 137.193 8.59082 137.544C9.03743 137.89 9.63216 138.063 10.375 138.063C11.0677 138.063 11.5986 137.922 11.9678 137.64C12.3369 137.357 12.5215 136.972 12.5215 136.484C12.5215 135.997 12.3506 135.621 12.0088 135.356C11.667 135.088 11.0472 134.823 10.1494 134.563Z" fill="#666666"/>
<path d="M14.9961 135.233C14.9961 134.509 15.1374 133.857 15.4199 133.278C15.707 132.7 16.1035 132.253 16.6094 131.938C17.1198 131.624 17.7008 131.467 18.3525 131.467C19.3597 131.467 20.1732 131.815 20.793 132.513C21.4173 133.21 21.7295 134.137 21.7295 135.295V135.384C21.7295 136.104 21.5905 136.751 21.3125 137.325C21.0391 137.895 20.6449 138.339 20.1299 138.658C19.6195 138.977 19.0316 139.137 18.3662 139.137C17.3636 139.137 16.5501 138.788 15.9258 138.091C15.306 137.394 14.9961 136.471 14.9961 135.322V135.233ZM16.2676 135.384C16.2676 136.204 16.4567 136.863 16.835 137.359C17.2178 137.856 17.7282 138.104 18.3662 138.104C19.0088 138.104 19.5192 137.854 19.8975 137.353C20.2757 136.847 20.4648 136.14 20.4648 135.233C20.4648 134.422 20.2712 133.766 19.8838 133.265C19.501 132.759 18.9906 132.506 18.3525 132.506C17.7282 132.506 17.2246 132.754 16.8418 133.251C16.459 133.748 16.2676 134.459 16.2676 135.384Z" fill="#666666"/>
<path d="M24.5049 131.604L24.5391 132.424C25.0814 131.786 25.8128 131.467 26.7334 131.467C27.7679 131.467 28.472 131.863 28.8457 132.656C29.0918 132.301 29.4108 132.014 29.8027 131.795C30.1992 131.576 30.6663 131.467 31.2041 131.467C32.8265 131.467 33.6514 132.326 33.6787 134.044V139H32.4141V134.119C32.4141 133.59 32.2933 133.196 32.0518 132.937C31.8102 132.672 31.4046 132.54 30.835 132.54C30.3656 132.54 29.9759 132.681 29.666 132.964C29.3561 133.242 29.1761 133.618 29.126 134.092V139H27.8545V134.153C27.8545 133.078 27.3281 132.54 26.2754 132.54C25.446 132.54 24.8786 132.893 24.5732 133.6V139H23.3086V131.604H24.5049Z" fill="#666666"/>
<path d="M38.6621 139.137C37.6595 139.137 36.8438 138.809 36.2148 138.152C35.5859 137.492 35.2715 136.61 35.2715 135.507V135.274C35.2715 134.541 35.4105 133.887 35.6885 133.312C35.971 132.734 36.363 132.283 36.8643 131.959C37.3701 131.631 37.917 131.467 38.5049 131.467C39.4665 131.467 40.2139 131.784 40.7471 132.417C41.2803 133.05 41.5469 133.957 41.5469 135.138V135.664H36.5361C36.5544 136.393 36.7663 136.983 37.1719 137.435C37.582 137.881 38.1016 138.104 38.7305 138.104C39.1771 138.104 39.5553 138.013 39.8652 137.831C40.1751 137.649 40.4463 137.407 40.6787 137.106L41.4512 137.708C40.8314 138.66 39.9017 139.137 38.6621 139.137ZM38.5049 132.506C37.9945 132.506 37.5661 132.693 37.2197 133.066C36.8734 133.436 36.6592 133.955 36.5771 134.625H40.2822V134.529C40.2458 133.887 40.0726 133.39 39.7627 133.039C39.4528 132.684 39.0335 132.506 38.5049 132.506Z" fill="#666666"/>
<path d="M44.7324 129.812V131.604H46.1133V132.581H44.7324V137.168C44.7324 137.464 44.7939 137.688 44.917 137.838C45.04 137.984 45.2497 138.057 45.5459 138.057C45.6917 138.057 45.8923 138.029 46.1475 137.975V139C45.8148 139.091 45.4912 139.137 45.1768 139.137C44.6117 139.137 44.1855 138.966 43.8984 138.624C43.6113 138.282 43.4678 137.797 43.4678 137.168V132.581H42.1211V131.604H43.4678V129.812H44.7324Z" fill="#666666"/>
<path d="M48.8613 132.499C49.4219 131.811 50.151 131.467 51.0488 131.467C52.612 131.467 53.4004 132.349 53.4141 134.112V139H52.1494V134.105C52.1449 133.572 52.0218 133.178 51.7803 132.923C51.5433 132.668 51.1719 132.54 50.666 132.54C50.2559 132.54 49.8958 132.649 49.5859 132.868C49.276 133.087 49.0345 133.374 48.8613 133.729V139H47.5967V128.5H48.8613V132.499Z" fill="#666666"/>
<path d="M56.6816 139H55.417V131.604H56.6816V139ZM55.3145 129.642C55.3145 129.437 55.376 129.263 55.499 129.122C55.6266 128.981 55.8135 128.91 56.0596 128.91C56.3057 128.91 56.4925 128.981 56.6201 129.122C56.7477 129.263 56.8115 129.437 56.8115 129.642C56.8115 129.847 56.7477 130.018 56.6201 130.154C56.4925 130.291 56.3057 130.359 56.0596 130.359C55.8135 130.359 55.6266 130.291 55.499 130.154C55.376 130.018 55.3145 129.847 55.3145 129.642Z" fill="#666666"/>
<path d="M59.9082 131.604L59.9492 132.533C60.5143 131.822 61.2526 131.467 62.1641 131.467C63.7272 131.467 64.5156 132.349 64.5293 134.112V139H63.2646V134.105C63.2601 133.572 63.137 133.178 62.8955 132.923C62.6585 132.668 62.2871 132.54 61.7812 132.54C61.3711 132.54 61.0111 132.649 60.7012 132.868C60.3913 133.087 60.1497 133.374 59.9766 133.729V139H58.7119V131.604H59.9082Z" fill="#666666"/>
<path d="M66.1357 135.24C66.1357 134.087 66.4023 133.171 66.9355 132.492C67.4688 131.809 68.1751 131.467 69.0547 131.467C69.957 131.467 70.6611 131.786 71.167 132.424L71.2285 131.604H72.3838V138.822C72.3838 139.779 72.099 140.534 71.5293 141.085C70.9642 141.636 70.2031 141.912 69.2461 141.912C68.7129 141.912 68.1911 141.798 67.6807 141.57C67.1702 141.342 66.7806 141.03 66.5117 140.634L67.168 139.875C67.7103 140.545 68.3734 140.88 69.1572 140.88C69.7725 140.88 70.251 140.707 70.5928 140.36C70.9391 140.014 71.1123 139.526 71.1123 138.897V138.262C70.6064 138.845 69.916 139.137 69.041 139.137C68.1751 139.137 67.4733 138.788 66.9355 138.091C66.4023 137.394 66.1357 136.443 66.1357 135.24ZM67.4072 135.384C67.4072 136.218 67.5781 136.874 67.9199 137.353C68.2617 137.826 68.7402 138.063 69.3555 138.063C70.153 138.063 70.7386 137.701 71.1123 136.977V133.6C70.7249 132.893 70.1439 132.54 69.3691 132.54C68.7539 132.54 68.2731 132.779 67.9268 133.258C67.5804 133.736 67.4072 134.445 67.4072 135.384Z" fill="#666666"/>
<path d="M84.3193 137.257L85.7412 131.604H87.0059L84.8525 139H83.8271L82.0293 133.395L80.2793 139H79.2539L77.1074 131.604H78.3652L79.8213 137.141L81.5439 131.604H82.5625L84.3193 137.257Z" fill="#666666"/>
<path d="M91.3672 139.137C90.3646 139.137 89.5488 138.809 88.9199 138.152C88.291 137.492 87.9766 136.61 87.9766 135.507V135.274C87.9766 134.541 88.1156 133.887 88.3936 133.312C88.6761 132.734 89.068 132.283 89.5693 131.959C90.0752 131.631 90.6221 131.467 91.21 131.467C92.1715 131.467 92.9189 131.784 93.4521 132.417C93.9854 133.05 94.252 133.957 94.252 135.138V135.664H89.2412C89.2594 136.393 89.4714 136.983 89.877 137.435C90.2871 137.881 90.8066 138.104 91.4355 138.104C91.8822 138.104 92.2604 138.013 92.5703 137.831C92.8802 137.649 93.1514 137.407 93.3838 137.106L94.1562 137.708C93.5365 138.66 92.6068 139.137 91.3672 139.137ZM91.21 132.506C90.6995 132.506 90.2712 132.693 89.9248 133.066C89.5785 133.436 89.3643 133.955 89.2822 134.625H92.9873V134.529C92.9508 133.887 92.7777 133.39 92.4678 133.039C92.1579 132.684 91.7386 132.506 91.21 132.506Z" fill="#666666"/>
<path d="M96.918 131.604L96.959 132.533C97.5241 131.822 98.2624 131.467 99.1738 131.467C100.737 131.467 101.525 132.349 101.539 134.112V139H100.274V134.105C100.27 133.572 100.147 133.178 99.9053 132.923C99.6683 132.668 99.2969 132.54 98.791 132.54C98.3809 132.54 98.0208 132.649 97.7109 132.868C97.401 133.087 97.1595 133.374 96.9863 133.729V139H95.7217V131.604H96.918Z" fill="#666666"/>
<path d="M105.162 129.812V131.604H106.543V132.581H105.162V137.168C105.162 137.464 105.224 137.688 105.347 137.838C105.47 137.984 105.679 138.057 105.976 138.057C106.121 138.057 106.322 138.029 106.577 137.975V139C106.244 139.091 105.921 139.137 105.606 139.137C105.041 139.137 104.615 138.966 104.328 138.624C104.041 138.282 103.897 137.797 103.897 137.168V132.581H102.551V131.604H103.897V129.812H105.162Z" fill="#666666"/>
<path d="M118.048 137.257L119.47 131.604H120.734L118.581 139H117.556L115.758 133.395L114.008 139H112.982L110.836 131.604H112.094L113.55 137.141L115.272 131.604H116.291L118.048 137.257Z" fill="#666666"/>
<path d="M125.602 132.738C125.41 132.706 125.203 132.69 124.979 132.69C124.15 132.69 123.587 133.044 123.291 133.75V139H122.026V131.604H123.257L123.277 132.458C123.692 131.797 124.28 131.467 125.041 131.467C125.287 131.467 125.474 131.499 125.602 131.562V132.738Z" fill="#666666"/>
<path d="M126.299 135.233C126.299 134.509 126.44 133.857 126.723 133.278C127.01 132.7 127.406 132.253 127.912 131.938C128.423 131.624 129.004 131.467 129.655 131.467C130.662 131.467 131.476 131.815 132.096 132.513C132.72 133.21 133.032 134.137 133.032 135.295V135.384C133.032 136.104 132.893 136.751 132.615 137.325C132.342 137.895 131.948 138.339 131.433 138.658C130.922 138.977 130.334 139.137 129.669 139.137C128.666 139.137 127.853 138.788 127.229 138.091C126.609 137.394 126.299 136.471 126.299 135.322V135.233ZM127.57 135.384C127.57 136.204 127.759 136.863 128.138 137.359C128.521 137.856 129.031 138.104 129.669 138.104C130.312 138.104 130.822 137.854 131.2 137.353C131.578 136.847 131.768 136.14 131.768 135.233C131.768 134.422 131.574 133.766 131.187 133.265C130.804 132.759 130.293 132.506 129.655 132.506C129.031 132.506 128.527 132.754 128.145 133.251C127.762 133.748 127.57 134.459 127.57 135.384Z" fill="#666666"/>
<path d="M135.814 131.604L135.855 132.533C136.421 131.822 137.159 131.467 138.07 131.467C139.633 131.467 140.422 132.349 140.436 134.112V139H139.171V134.105C139.166 133.572 139.043 133.178 138.802 132.923C138.565 132.668 138.193 132.54 137.688 132.54C137.277 132.54 136.917 132.649 136.607 132.868C136.298 133.087 136.056 133.374 135.883 133.729V139H134.618V131.604H135.814Z" fill="#666666"/>
<path d="M142.042 135.24C142.042 134.087 142.309 133.171 142.842 132.492C143.375 131.809 144.081 131.467 144.961 131.467C145.863 131.467 146.567 131.786 147.073 132.424L147.135 131.604H148.29V138.822C148.29 139.779 148.005 140.534 147.436 141.085C146.87 141.636 146.109 141.912 145.152 141.912C144.619 141.912 144.097 141.798 143.587 141.57C143.076 141.342 142.687 141.03 142.418 140.634L143.074 139.875C143.617 140.545 144.28 140.88 145.063 140.88C145.679 140.88 146.157 140.707 146.499 140.36C146.845 140.014 147.019 139.526 147.019 138.897V138.262C146.513 138.845 145.822 139.137 144.947 139.137C144.081 139.137 143.38 138.788 142.842 138.091C142.309 137.394 142.042 136.443 142.042 135.24ZM143.313 135.384C143.313 136.218 143.484 136.874 143.826 137.353C144.168 137.826 144.646 138.063 145.262 138.063C146.059 138.063 146.645 137.701 147.019 136.977V133.6C146.631 132.893 146.05 132.54 145.275 132.54C144.66 132.54 144.179 132.779 143.833 133.258C143.487 133.736 143.313 134.445 143.313 135.384Z" fill="#666666"/>
<path d="M150.231 138.337C150.231 138.118 150.295 137.936 150.423 137.79C150.555 137.644 150.751 137.571 151.011 137.571C151.271 137.571 151.466 137.644 151.599 137.79C151.735 137.936 151.804 138.118 151.804 138.337C151.804 138.547 151.735 138.722 151.599 138.863C151.466 139.005 151.271 139.075 151.011 139.075C150.751 139.075 150.555 139.005 150.423 138.863C150.295 138.722 150.231 138.547 150.231 138.337Z" fill="#666666"/>
<path d="M105.997 33.0874C105.986 32.7157 105.838 32.353 105.563 32.0793L90.8612 17.4355L90.8594 17.434C90.5893 17.1658 90.2169 17 89.8057 17H57.1427C55.4097 17 54 18.404 54 20.1302V77.3739C54 79.0999 55.4096 80.5041 57.1426 80.5041H102.857C104.59 80.5041 106 79.1001 106 77.3739V33.1306C106 33.1159 105.998 33.1018 105.997 33.0874ZM91.2985 22.0767L100.904 31.6439H91.9284C91.581 31.6439 91.2985 31.3625 91.2985 31.0164V22.0767ZM103.015 77.3742C103.015 77.4602 102.944 77.5304 102.858 77.5304H57.1427C57.0562 77.5304 56.9857 77.4602 56.9857 77.374V20.1302C56.9857 20.044 57.0562 19.9738 57.1427 19.9738H88.3129V31.0164C88.3129 33.0021 89.9348 34.6177 91.9284 34.6177H103.015L103.015 77.3742Z" fill="#999999"/>
<path fill-rule="evenodd" clip-rule="evenodd" d="M83.7195 60.1813C81.8043 58.5395 78.2293 58.4159 75.4747 60.14C74.8066 60.5582 73.926 60.3556 73.5079 59.6875C73.0897 59.0195 73.2923 58.1389 73.9604 57.7207C77.5106 55.4986 82.4982 55.375 85.5771 58.0144C86.1755 58.5273 86.2447 59.4282 85.7318 60.0266C85.2188 60.625 84.3179 60.6942 83.7195 60.1813Z" fill="#999999"/>
<path d="M71.9516 45.8978C71.802 47.4793 71.0394 49.0045 69.4543 49.1086C67.7802 49.2186 66.7641 47.5674 66.6002 45.8978C66.415 44.0118 67.5629 41.8558 69.4543 41.9734C71.2674 42.086 72.1227 44.0893 71.9516 45.8978Z" fill="#999999"/>
<path d="M88.3629 45.8982C88.5052 47.4412 89.1475 49.009 90.6938 49.1091C92.3197 49.2144 93.2011 47.52 93.3576 45.8982C93.5356 44.0545 92.5427 41.862 90.6938 41.9738C88.9145 42.0814 88.1992 44.1233 88.3629 45.8982Z" fill="#999999"/>
<path fill-rule="evenodd" clip-rule="evenodd" d="M70.0784 58.7268C70.0784 59.7199 69.2569 60.5249 68.2436 60.5249H65.8992C64.8859 60.5249 64.0645 59.7199 64.0645 58.7268C64.0645 57.7337 64.8859 56.9287 65.8992 56.9287H68.2436C69.2569 56.9287 70.0784 57.7337 70.0784 58.7268Z" fill="#DDDDDD"/>
<path fill-rule="evenodd" clip-rule="evenodd" d="M95.8669 58.7268C95.8669 59.7199 95.0454 60.5249 94.0321 60.5249H91.6877C90.6744 60.5249 89.853 59.7199 89.853 58.7268C89.853 57.7337 90.6744 56.9287 91.6877 56.9287H94.0321C95.0454 56.9287 95.8669 57.7337 95.8669 58.7268Z" fill="#DDDDDD"/>
</svg>
